<!DOCTYPE svg PUBLIC "-//W3C//DTD SVG 1.1//EN" "http://www.w3.org/Graphics/SVG/1.1/DTD/svg11.dtd">
<!-- Uploaded to: SVG Repo, www.svgrepo.com, Transformed by: SVG Repo Mixer Tools -->
<svg version="1.1" id="Layer_1" xmlns="http://www.w3.org/2000/svg" xmlns:xlink="http://www.w3.org/1999/xlink" viewBox="0 0 512 512" xml:space="preserve" width="800px" height="800px" fill="#000000">
<g id="SVGRepo_bgCarrier" stroke-width="0"/>
<g id="SVGRepo_tracerCarrier" stroke-linecap="round" stroke-linejoin="round"/>
<g id="SVGRepo_iconCarrier"> <rect x="10.199" y="117.607" style="fill:#F92859;" width="491.602" height="169.378"/> <path style="fill:#FFFFFF;" d="M501.801,286.983H10.199v119.217c0,32.835,26.618,59.453,59.453,59.453h372.695 c32.835,0,59.453-26.618,59.453-59.453L501.801,286.983L501.801,286.983z"/> <polygon style="fill:#F92859;" points="150.335,389.439 123.805,416.081 97.274,389.439 97.274,252.902 150.335,252.902 "/> <rect x="72.298" y="319.5" style="fill:#75EBE5;" width="103.012" height="42.153"/> <polygon style="fill:#F92859;" points="414.726,389.439 388.196,416.081 361.665,389.439 361.665,252.902 414.726,252.902 "/> <rect x="336.686" y="319.5" style="fill:#75EBE5;" width="103.012" height="42.153"/> <g> <path style="fill:#333333;" d="M512,117.608c0-5.632-4.566-10.199-10.199-10.199H366.619V70.633 c0-19.015-15.47-34.486-34.486-34.486H179.868c-19.015,0-34.486,15.47-34.486,34.486v36.776H10.199 C4.566,107.409,0,111.976,0,117.608v288.593c0,38.406,31.246,69.652,69.652,69.652h372.695c38.406,0,69.652-31.246,69.652-69.652 L512,117.608L512,117.608z M165.781,70.633c0-7.767,6.319-14.087,14.087-14.087h152.265c7.768,0,14.087,6.319,14.087,14.087v36.776 H165.781V70.633z M79.79,242.702c-5.633,0-10.199,4.567-10.199,10.199s4.566,10.199,10.199,10.199h7.284v13.683H20.398V127.807 h471.203v148.977h-66.676v-13.683h7.284c5.633,0,10.199-4.567,10.199-10.199s-4.566-10.199-10.199-10.199h-88.028 c-5.633,0-10.199,4.567-10.199,10.199s4.566,10.199,10.199,10.199h7.284v13.683H160.534v-13.683h7.284 c5.633,0,10.199-4.567,10.199-10.199s-4.566-10.199-10.199-10.199L79.79,242.702L79.79,242.702z M371.864,371.857h32.663v13.37 l-16.331,16.399l-16.332-16.399V371.857z M346.887,351.458v-21.754h82.616v21.754H346.887z M371.864,309.306v-46.205h32.663v46.205 H371.864z M107.473,371.857h32.663v13.37l-16.332,16.399l-16.332-16.399v-13.37H107.473z M82.497,351.458v-21.754h82.616v21.754 H82.497z M107.473,309.306v-46.205h32.663v46.205H107.473z M442.348,455.455H69.652c-27.158,0-49.254-22.096-49.254-49.254V297.182 h66.676v12.124H72.298c-5.633,0-10.199,4.567-10.199,10.199v42.152c0,5.632,4.566,10.199,10.199,10.199h14.777v17.582 c0,2.698,1.069,5.286,2.972,7.198l26.531,26.641c1.914,1.922,4.515,3.002,7.227,3.002c2.712,0,5.313-1.081,7.227-3.002 l26.531-26.641c1.903-1.911,2.972-4.5,2.972-7.198v-17.582h14.777c5.633,0,10.199-4.567,10.199-10.199v-42.152 c0-5.632-4.566-10.199-10.199-10.199h-14.777v-12.124h190.931v12.124h-14.778c-5.633,0-10.199,4.567-10.199,10.199v42.152 c0,5.632,4.566,10.199,10.199,10.199h14.778v17.582c0,2.698,1.069,5.286,2.972,7.198l26.531,26.641 c1.914,1.922,4.515,3.002,7.227,3.002c2.713,0,5.313-1.081,7.227-3.002l26.53-26.641c1.903-1.911,2.972-4.5,2.972-7.198v-17.582 h14.778c5.633,0,10.199-4.567,10.199-10.199v-42.152c0-5.632-4.566-10.199-10.199-10.199h-14.778v-12.124h66.675v109.018 C491.602,433.359,469.506,455.455,442.348,455.455z"/> <path style="fill:#333333;" d="M236.514,263.101h38.971c5.633,0,10.199-4.567,10.199-10.199s-4.566-10.199-10.199-10.199h-38.971 c-5.633,0-10.199,4.567-10.199,10.199S230.881,263.101,236.514,263.101z"/> <path style="fill:#333333;" d="M347.657,159.108h5.1c5.633,0,10.199-4.567,10.199-10.199s-4.566-10.199-10.199-10.199h-5.1 c-5.633,0-10.199,4.567-10.199,10.199S342.024,159.108,347.657,159.108z"/> <path style="fill:#333333;" d="M387.434,159.108h83.633c5.633,0,10.199-4.567,10.199-10.199s-4.566-10.199-10.199-10.199h-83.633 c-5.633,0-10.199,4.567-10.199,10.199S381.801,159.108,387.434,159.108z"/> </g> </g>
</svg>